# OBJ written from C:\Users\Colin\Desktop\NativeAmericanTowers\Coyote\nativeAmerican_tower_coyote_v01_colin_feb01.obj

o Mesh
v 5.0119e-010 -2.60949 -2.40465
v -0.93175 -2.60802 -2.22553
v -1.71997 -2.60626 -1.71146
v -2.2581 -2.61203 -0.916958
v -2.45326 -2.63409 -0.0297341
v -2.28729 -2.62053 0.761809
v -1.75843 -2.64981 1.58464
v -0.91607 -2.64819 2.19598
v 5.05082e-010 -2.66858 2.38024
v 0.91607 -2.64819 2.19598
v 1.75843 -2.64981 1.58464
v 2.28729 -2.62053 0.761809
v 2.45326 -2.63409 -0.0297341
v 2.2581 -2.61203 -0.916958
v 1.71997 -2.60626 -1.71146
v 0.93175 -2.60802 -2.22553
v 6.41409e-010 3.38397 -2.09953
v -0.697146 3.36852 -1.95273
v -1.28879 3.37479 -1.56073
v -1.7006 3.36115 -1.03498
v -1.84401 3.33432 -0.329096
v -1.66793 3.29018 0.50372
v -1.29829 3.25449 1.12686
v -0.700496 3.26004 1.53763
v 7.41742e-010 3.26703 1.68097
v 0.700496 3.26004 1.53763
v 1.29829 3.25449 1.12686
v 1.66793 3.29018 0.50372
v 1.84401 3.33432 -0.329096
v 1.7006 3.36115 -1.03498
v 1.28879 3.37479 -1.56073
v 0.697146 3.36852 -1.95273
v -0.986056 -1.29039 -1.97314
v 2.31777e-010 -1.28814 -2.15206
v -1.00466 -0.247918 -1.96525
v 1.77891e-010 -0.236574 -2.15673
v -0.883517 2.57287 -2.33856
v 4.41108e-010 2.71892 -2.50767
v -1.81134 -1.29111 -1.45829
v -1.84986 -0.24892 -1.39943
v -1.65431 2.37785 -1.86209
v -2.37545 -1.2385 -0.798324
v -2.42873 -0.118643 -0.523604
v -2.20436 2.20524 -1.12873
v -2.50683 -1.27198 -0.262621
v -2.51703 1.03773 0.307374
v -2.44163 2.07814 -0.125286
v -2.35055 -0.661443 0.343691
v -2.27346 0.854316 1.04139
v -2.22154 2.31126 0.925483
v -1.86149 -1.19037 0.93068
v -1.75301 0.777728 1.96297
v -1.67654 2.48823 1.69269
v -0.934763 -1.44113 1.74918
v -0.92514 0.593392 2.47078
v -0.891419 2.60101 2.18347
v 6.61953e-010 -1.68603 2.00337
v -6.64027e-010 0.56661 2.65042
v 3.71577e-010 2.64642 2.35138
v 0.934763 -1.44113 1.74918
v 0.92514 0.593392 2.47078
v 0.891419 2.60101 2.18347
v 1.86149 -1.19037 0.93068
v 1.75301 0.777728 1.96297
v 1.67654 2.48823 1.69269
v 2.35055 -0.661443 0.343691
v 2.27346 0.854316 1.04139
v 2.22154 2.31126 0.925483
v 2.50683 -1.27198 -0.262621
v 2.51703 1.03773 0.307374
v 2.44163 2.07814 -0.125286
v 2.37545 -1.2385 -0.798324
v 2.42873 -0.118643 -0.523604
v 2.20436 2.20524 -1.12873
v 1.81134 -1.29111 -1.45829
v 1.84986 -0.24892 -1.39943
v 1.65431 2.37785 -1.86209
v 0.986056 -1.29039 -1.97314
v 1.00466 -0.247918 -1.96525
v 0.883517 2.57287 -2.33856
v -1.59285 -1.64783 1.7566
v -1.96174 -1.24049 1.27342
v -0.885336 -2.10343 2.24519
v 1.79972e-009 -2.26519 2.49886
v 0.885336 -2.10343 2.24519
v 1.59285 -1.64783 1.7566
v 1.96174 -1.24049 1.27342
v -1.51324 -0.36782 2.31669
v -1.58693 0.152672 2.16017
v -2.07289 0.210613 1.6002
v -1.93652 -0.146686 1.88114
v -2.26041 -0.929074 0.902004
v -1.98499 -1.31456 1.59625
v -0.664295 -1.02446 2.98112
v -0.778066 -0.206328 2.72926
v 1.59759e-009 -1.29279 3.1623
v -3.89265e-010 -0.339984 2.90925
v 0.664295 -1.02446 2.98112
v 0.778066 -0.206328 2.72926
v 1.51324 -0.46782 2.31669
v 1.58693 0.152672 2.16017
v 1.98499 -1.31456 1.59625
v 2.26041 -0.929074 0.902004
v 2.07289 0.210613 1.6002
v 1.93652 -0.146686 1.88114
v -1.59165 -1.63624 2.12292
v -0.923723 -2.06854 2.58183
v 2.80542e-009 -2.15527 2.77613
v 0.923723 -2.06854 2.58183
v 1.59165 -1.63624 2.12292
v -1.82782 3.34754 -0.699327
v -2.37203 2.09104 -0.516533
v -2.51578 0.652955 -0.0130394
v -2.40962 0.163954 0.581712
v 2.40962 0.163954 0.581712
v 2.51578 0.652955 -0.0130394
v 2.37203 2.09104 -0.516533
v 1.82782 3.34754 -0.699327
v -2.24681 -0.172012 1.22114
v 2.24681 -0.172012 1.22114
v -2.01495 -0.496972 1.76524
v 2.01495 -0.496972 1.76524
v -1.58874 -0.716324 2.2936
v -0.812101 -1.41501 2.87713
v 2.80698e-009 -1.68716 3.096
v 0.812101 -1.41501 2.87713
v 1.58874 -0.816324 2.2936
v 2.46786 1.13232 -0.18087
v 2.4919 1.38453 0.163154
v 2.41994 1.61168 -0.348702
v 2.46676 1.73134 0.0189336
v 2.35394 0.635984 -0.665314
v 2.27915 1.43061 -1.06702
v -1.72752 1.29456 1.99954
v -2.25615 1.28663 1.12942
v -1.70203 1.95139 1.91612
v -2.23885 1.85894 1.09745
v 1.78468 0.626671 -1.66031
v 1.7195 1.52226 -1.9012
v -2.4919 1.38453 0.163154
v -2.46676 1.73134 0.0189336
v 2.25615 1.28663 1.12942
v 1.72752 1.29456 1.99954
v 2.23885 1.85894 1.09745
v 1.70203 1.95139 1.91612
v 0.9139 1.20926 2.50168
v 0.902659 1.96514 2.41257
v -2.46786 1.13232 -0.18087
v -2.41994 1.61168 -0.348702
v -2.35394 0.635984 -0.665314
v -1.78468 0.626671 -1.66031
v -2.27915 1.43061 -1.06702
v -1.7195 1.52226 -1.9012
v -3.18826e-010 1.20655 2.67741
v 0 1.98648 2.5844
v -0.96428 0.692343 -2.19635
v -0.923898 1.6526 -2.40746
v -0.9139 1.20926 2.50168
v -0.902659 1.96514 2.41257
v 0.96428 0.692343 -2.19635
v 0.923898 1.6526 -2.40746
v 2.6563e-010 0.748592 -2.38038
v 3.53369e-010 1.75376 -2.58403
v 0.603707 3.78913 0.412027
v 0.775587 3.80572 0.122265
v 0.857466 3.82625 -0.264994
v 0.849938 3.8324 -0.437151
v 0.790781 3.83873 -0.593228
v 0.599286 3.84507 -0.837703
v 0.324173 3.84215 -1.01998
v 2.98255e-010 3.84934 -1.08825
v -0.324173 3.84215 -1.01998
v -0.599286 3.84507 -0.837703
v -0.790781 3.83873 -0.593228
v -0.849938 3.8324 -0.437151
v -0.857466 3.82625 -0.264994
v -0.775587 3.80572 0.122265
v -0.603707 3.78913 0.412027
v -0.325731 3.79171 0.603032
v 3.4491e-010 3.79496 0.669688
v 0.325731 3.79171 0.603032
v 3.57314e-011 3.94148 -0.247224
v 6.2892e-011 -2.62725 -0.0441839
vn -0.370686 0.152801 -0.916102
vn -0.366344 0.0848743 -0.9266
vn -7.0018e-005 0.0924057 -0.995721
vn -0.00012982 0.184191 -0.98289
vn -0.367458 -0.101829 -0.924449
vn 0.000128966 -0.113917 -0.99349
vn -0.396959 0.272074 -0.876584
vn -0.301764 0.718212 -0.626985
vn -0.0375011 0.667659 -0.743522
vn 0.000418487 0.298299 -0.954472
vn -0.700395 0.051198 -0.711917
vn -0.674099 0.0642425 -0.735842
vn -0.680533 -0.0179318 -0.732498
vn -0.700149 0.236876 -0.673559
vn -0.558553 0.607668 -0.564587
vn -0.917118 -0.049645 -0.395512
vn -0.898635 0.116061 -0.423067
vn -0.898298 0.142387 -0.415675
vn -0.892779 0.200613 -0.40336
vn -0.837327 0.360403 -0.411088
vn -0.675009 0.405579 -0.616334
vn -0.999463 -0.0322886 -0.00563849
vn -0.989816 0.123588 -0.0706445
vn -0.996984 0.0414907 0.0655854
vn -0.941218 0.0846814 -0.327013
vn -0.920328 0.0991475 0.378373
vn -0.983391 0.0721515 0.166544
vn -0.873986 0.387173 0.293677
vn -0.623329 0.750341 0.220114
vn -0.698371 0.71389 0.0513788
vn -0.961072 0.275029 0.0264319
vn -0.706313 0.23445 0.667948
vn -0.967588 -0.0195946 0.251773
vn -0.649636 0.483737 0.586491
vn -0.466927 0.783908 0.409228
vn -0.379121 0.322829 0.867207
vn -0.34105 0.531706 0.775225
vn -0.253539 0.808064 0.531743
vn 0.000637083 0.351403 0.936224
vn 0.000264377 0.548828 0.835935
vn 0.000354438 0.815647 0.57855
vn 0.377045 0.32948 0.865609
vn 0.339281 0.535543 0.773358
vn 0.256861 0.801014 0.540739
vn 0.713999 0.201527 0.670516
vn 0.652692 0.472581 0.592166
vn 0.476548 0.77107 0.42232
vn 0.924058 0.0432778 0.379794
vn 0.963132 -0.0216095 0.268159
vn 0.882467 0.359205 0.303684
vn 0.644161 0.728056 0.234501
vn 0.99938 -0.0347908 -0.00545093
vn 0.990038 0.121867 -0.0705147
vn 0.981012 0.0699459 0.180898
vn 0.900136 0.107533 -0.422127
vn 0.944103 0.0595476 -0.324227
vn 0.994522 0.0634438 0.0830759
vn 0.963554 0.267497 -0.00302185
vn 0.716135 0.697489 0.0257012
vn 0.918431 -0.00728216 -0.395515
vn 0.69832 0.0954442 -0.709394
vn 0.676228 0.0490143 -0.73506
vn 0.681875 -0.0688848 -0.728218
vn 0.697376 0.276099 -0.66139
vn 0.588774 0.633081 -0.502547
vn 0.726016 0.606118 -0.32484
vn 0.897736 0.247242 -0.364613
vn 0.369967 0.163627 -0.914522
vn 0.366454 0.080187 -0.926974
vn 0.367583 -0.103109 -0.924257
vn 0.398388 0.295972 -0.868152
vn 0.298757 0.734685 -0.609083
vn 0.506518 0.718413 -0.476783
vn 0.000531468 0.742736 -0.669585
vn -0.406175 -0.862882 -0.300759
vn -0.403133 -0.851665 -0.33489
vn -0.408019 -0.847134 -0.340419
vn -0.452167 -0.863411 -0.223754
vn -0.0916066 -0.773258 -0.627439
vn -0.236889 -0.923793 -0.300814
vn 0.0114626 -0.622242 -0.782741
vn -0.136339 -0.61533 -0.77639
vn -0.17383 -0.581977 -0.794409
vn 0.58617 -0.806678 -0.0753375
vn 0.529955 -0.803076 -0.272427
vn 0.543325 -0.802006 -0.248161
vn 0.585923 -0.794752 -0.158312
vn -0.621953 0.124322 0.773122
vn -0.684205 0.0407586 0.72815
vn -0.909192 -0.0510497 0.413236
vn -0.840394 0.0241049 0.541439
vn -0.284446 -0.881594 -0.376672
vn -0.349159 -0.885795 -0.305704
vn -0.34473 0.226022 0.911085
vn -0.360365 0.0958099 0.927878
vn -0.00236318 0.271143 0.962536
vn -0.000203969 0.117897 0.993026
vn 0.359773 0.207258 0.909729
vn 0.366018 0.0812303 0.927056
vn 0.570674 0.260997 0.778596
vn 0.680187 0.093292 0.727078
vn 0.610564 -0.785661 -0.0997462
vn 0.556278 -0.80032 -0.223703
vn 0.774967 0.221123 0.592057
vn 0.889909 0.104267 0.444061
vn -0.489282 -0.86601 -0.103105
vn -0.344147 -0.936952 0.0606925
vn 0.0259072 -0.972547 0.231259
vn 0.156848 -0.882973 0.442445
vn 0.371536 -0.906538 0.200376
vn 0.395916 -0.819213 0.414899
vn 0.605097 -0.795772 0.0245867
vn -0.632017 0.0804686 0.770765
vn -0.78489 0.0167119 0.619409
vn -0.40074 0.0974172 0.910998
vn -0.000126837 0.062047 0.998073
vn 0.420327 0.0712581 0.90457
vn 0.585445 0.174463 0.791718
vn 0.701487 0.195755 0.685271
vn -0.797693 0.591198 -0.119043
vn -0.962877 0.206912 -0.173367
vn -0.905677 0.38608 -0.175191
vn -0.982782 -0.0665528 0.172365
vn -0.997132 -0.0747465 0.0118926
vn -0.970412 -0.128637 0.204336
vn -0.969459 0.0723792 -0.234328
vn 0.967191 -0.0368971 0.251355
vn 0.999801 0.000456295 0.019946
vn 0.976043 0.0900663 0.198061
vn 0.958142 0.2284 -0.172621
vn 0.907316 0.3871 -0.164107
vn 0.852337 0.402935 -0.333413
vn -0.946684 -0.0695784 0.314562
vn -0.958875 -0.122256 0.256148
vn 0.93507 -0.023521 0.353683
vn 0.957602 -0.0878153 0.274386
vn -0.855206 -0.0868288 0.510963
vn -0.877495 -0.136814 0.459657
vn 0.840697 -0.0214916 0.541079
vn 0.879544 -0.111885 0.462475
vn -0.702218 -0.0688435 0.708626
vn -0.737763 -0.142272 0.659898
vn -0.4893 -0.136104 0.86143
vn -0.519657 -0.239685 0.820066
vn -0.119794 -0.220338 0.96804
vn -0.348417 -0.335903 0.875086
vn -0.331399 -0.2359 0.913524
vn 0.139336 -0.291163 0.946472
vn 0.515508 -0.222942 0.827375
vn 0.357024 -0.346716 0.867365
vn 0.28488 -0.754621 0.591092
vn 0.446466 -0.597198 0.66635
vn 0.702251 -0.0509726 0.710103
vn 0.545317 -0.370568 0.75187
vn 0.748102 -0.160048 0.643994
vn 0.985585 0.0409296 -0.164158
vn 0.98579 0.131994 0.103905
vn 0.984529 0.0425953 -0.169964
vn 0.992913 0.109386 0.0464669
vn 0.925388 -0.0338624 -0.377506
vn 0.927641 0.0202689 -0.372923
vn -0.71341 0.0469088 0.699175
vn -0.918899 0.0314202 0.39324
vn -0.694513 0.195471 0.692418
vn -0.919647 0.128016 0.371297
vn 0.713544 -0.129912 -0.68846
vn 0.715263 -0.0144189 -0.698707
vn -0.99461 0.0249328 0.10064
vn -0.997266 0.0516464 0.0528415
vn 0.908159 0.0954958 0.407588
vn 0.714754 0.0218018 0.699036
vn 0.914827 0.153315 0.373613
vn 0.694843 0.197328 0.69156
vn 0.361466 0.0422749 0.931426
vn 0.352628 0.238875 0.904761
vn -0.98813 0.0297289 -0.150718
vn -0.98574 0.0227711 -0.16673
vn -0.925324 -0.0376955 -0.377298
vn -0.709947 -0.14728 -0.688683
vn -0.92581 -0.0227434 -0.377304
vn -0.712588 -0.0607424 -0.698948
vn 1.25356e-005 0.0375626 0.999294
vn -0.000106201 0.229764 0.973246
vn -0.362779 -0.208658 -0.908214
vn -0.370109 -0.0586182 -0.927137
vn -0.361952 0.0382163 0.931413
vn -0.355402 0.217393 0.909082
vn 0.364849 -0.191548 -0.91115
vn 0.370973 -0.0494589 -0.927325
vn 0.000350218 -0.214742 -0.976671
vn 0.000117459 -0.0619577 -0.998079
vn 0.132662 0.947797 0.289968
vn 0.222903 0.945976 0.235466
vn 0.275411 0.948074 0.159075
vn 0.295443 0.953001 0.0671048
vn 0.43185 0.900312 -0.0542482
vn 0.284338 0.958475 -0.0218392
vn 0.384023 0.904259 -0.186661
vn 0.252726 0.9612 -0.110563
vn 0.541078 0.785944 -0.299211
vn 0.189335 0.961947 -0.197003
vn 0.396217 0.79484 -0.45961
vn 0.112245 0.961267 -0.251726
vn 0.0847676 0.809906 -0.580402
vn -1.89352e-009 0.963821 -0.266549
vn -0.112245 0.961267 -0.251726
vn -0.400808 0.785126 -0.472154
vn -0.189335 0.961947 -0.197003
vn -0.292702 0.904777 -0.309362
vn -0.384023 0.904259 -0.186661
vn -0.252726 0.9612 -0.110563
vn -0.43185 0.900312 -0.0542482
vn -0.284338 0.958475 -0.0218392
vn -0.6214 0.782104 -0.0466455
vn -0.295443 0.953001 0.0671048
vn -0.275411 0.948074 0.159075
vn -0.222903 0.945976 0.235466
vn -0.132662 0.947797 0.289968
vn -1.60907e-008 0.949415 0.314024
vn 2.29936e-009 0.999604 0.0281485
vn -0.00605621 -0.999912 -0.0118242
vn -0.00294839 -0.999851 -0.0170331
vn 1.6009e-010 -0.999948 -0.0102382
vn -0.00486366 -0.999973 -0.00547001
vn 0.002767 -0.999989 -0.00387819
vn -0.000236519 -0.999858 -0.0168233
vn -0.00468074 -0.999959 -0.00775612
vn -0.00463126 -0.999966 -0.00683337
vn 0 -0.999972 -0.0075216
vn 0.00463126 -0.999966 -0.00683337
vn 0.00468074 -0.999959 -0.00775612
vn 0.000236519 -0.999858 -0.0168233
vn -0.002767 -0.999989 -0.00387819
vn 0.00486366 -0.999973 -0.00547001
vn 0.00294839 -0.999851 -0.0170331
vn 0.00605621 -0.999912 -0.0118242
vn 9.31488e-010 -0.999855 -0.0170472
vt 0.0625 0
vt 0.0625 0.125
vt 0 0.125
vt 0 0
vt 0.0625 0.25
vt 0 0.25
vt 0.0625 0.375
vt 0.0625 0.5
vt 0 0.5
vt 0 0.375
vt 0.125 0
vt 0.125 0.125
vt 0.125 0.25
vt 0.125 0.375
vt 0.125 0.5
vt 0.1875 0
vt 0.1875 0.125
vt 0.1875 0.25
vt 0.1875 0.375
vt 0.1875 0.5
vt 0.25 0
vt 0.25 0.125
vt 0.3125 0.125
vt 0.3125 0
vt 0.3125 0.375
vt 0.3125 0.5
vt 0.25 0.5
vt 0.25 0.375
vt 0.375 0
vt 0.375 0.125
vt 0.375 0.375
vt 0.375 0.5
vt 0.4375 0
vt 0.4375 0.125
vt 0.4375 0.375
vt 0.4375 0.5
vt 0.5 0
vt 0.5 0.125
vt 0.5 0.375
vt 0.5 0.5
vt 0.5625 0
vt 0.5625 0.125
vt 0.5625 0.375
vt 0.5625 0.5
vt 0.625 0
vt 0.625 0.125
vt 0.625 0.375
vt 0.625 0.5
vt 0.6875 0
vt 0.6875 0.125
vt 0.6875 0.375
vt 0.6875 0.5
vt 0.75 0
vt 0.75 0.125
vt 0.8125 0.125
vt 0.8125 0.25
vt 0.75 0.375
vt 0.75 0.5
vt 0.8125 0
vt 0.875 0
vt 0.875 0.125
vt 0.875 0.25
vt 0.875 0.375
vt 0.875 0.5
vt 0.8125 0.5
vt 0.8125 0.375
vt 0.9375 0
vt 0.9375 0.125
vt 0.9375 0.25
vt 0.9375 0.375
vt 0.9375 0.5
vt 1 0
vt 1 0.125
vt 1 0.25
vt 1 0.375
vt 1 0.5
vt 0.21875 0.5
vt 0.21875 0.375
vt 0.25 0.25
vt 0.21875 0.25
vt 0.3125 0.1875
vt 0.3125 0.25
vt 0.6875 0.25
vt 0.6875 0.1875
vt 0.78125 0.25
vt 0.75 0.25
vt 0.78125 0.375
vt 0.78125 0.5
vt 0 0.1875
vt 1 0.1875
vt 0.375 0.1875
vt 0.375 0.25
vt 0.4375 0.1875
vt 0.4375 0.25
vt 0.5 0.1875
vt 0.5 0.25
vt 0.5625 0.1875
vt 0.5625 0.25
vt 0.625 0.1875
vt 0.625 0.25
vt 0.78125 0.291667
vt 0.75 0.291667
vt 0.78125 0.333333
vt 0.75 0.333333
vt 0.8125 0.291667
vt 0.8125 0.333333
vt 0.375 0.291667
vt 0.3125 0.291667
vt 0.375 0.333333
vt 0.3125 0.333333
vt 0.875 0.291667
vt 0.875 0.333333
vt 0.25 0.291667
vt 0.25 0.333333
vt 0.6875 0.291667
vt 0.625 0.291667
vt 0.6875 0.333333
vt 0.625 0.333333
vt 0.5625 0.291667
vt 0.5625 0.333333
vt 0.21875 0.291667
vt 0.21875 0.333333
vt 0.1875 0.291667
vt 0.125 0.291667
vt 0.1875 0.333333
vt 0.125 0.333333
vt 0.5 0.291667
vt 0.5 0.333333
vt 0.0625 0.291667
vt 0.0625 0.333333
vt 0.4375 0.291667
vt 0.4375 0.333333
vt 0.9375 0.291667
vt 0.9375 0.333333
vt 0 0.291667
vt 0 0.333333
vt 1 0.291667
vt 1 0.333333
vt 0.472222 0.5
vt 0.46875 0
mtllib nativeAmerican_tower_coyote_v01_colin_feb01.mtl
usemtl Default
g Default
f 2/1/1 33/2/2 34/3/3 1/4/4
f 33/2/2 35/5/5 36/6/6 34/3/3
f 37/7/7 18/8/8 17/9/9 38/10/10
f 3/11/11 39/12/12 33/2/2 2/1/1
f 39/12/12 40/13/13 35/5/5 33/2/2
f 41/14/14 19/15/15 18/8/8 37/7/7
f 4/16/16 42/17/17 39/12/12 3/11/11
f 42/17/17 43/18/18 40/13/13 39/12/12
f 44/19/19 20/20/20 19/15/21 41/14/14
f 5/21/22 45/22/23 42/17/17 4/16/16
f 45/22/23 48/23/24 43/18/25 42/17/17
f 6/24/26 48/23/27 45/22/23 5/21/22
f 50/25/28 22/26/29 21/27/30 47/28/31
f 7/29/32 51/30/32 48/23/33 6/24/26
f 53/31/34 23/32/35 22/26/29 50/25/28
f 8/33/36 54/34/36 51/30/32 7/29/32
f 56/35/37 24/36/38 23/32/35 53/31/34
f 9/37/39 57/38/39 54/34/36 8/33/36
f 59/39/40 25/40/41 24/36/38 56/35/37
f 10/41/42 60/42/42 57/38/39 9/37/39
f 62/43/43 26/44/44 25/40/41 59/39/40
f 11/45/45 63/46/45 60/42/42 10/41/42
f 65/47/46 27/48/47 26/44/44 62/43/43
f 12/49/48 66/50/49 63/46/45 11/45/45
f 68/51/50 28/52/51 27/48/47 65/47/46
f 13/53/52 69/54/53 66/50/54 12/49/48
f 69/54/53 72/55/55 73/56/56 66/50/57
f 71/57/58 29/58/59 28/52/51 68/51/50
f 14/59/60 72/55/55 69/54/53 13/53/52
f 15/60/61 75/61/62 72/55/55 14/59/60
f 75/61/62 76/62/63 73/56/56 72/55/55
f 77/63/64 31/64/65 30/65/66 74/66/67
f 16/67/68 78/68/69 75/61/62 15/60/61
f 78/68/69 79/69/70 76/62/63 75/61/62
f 80/70/71 32/71/72 31/64/73 77/63/64
f 1/72/4 34/73/3 78/68/69 16/67/68
f 34/73/3 36/74/6 79/69/70 78/68/69
f 38/75/10 17/76/74 32/71/72 80/70/71
f 82/73/75 48/3/76 51/3/77 81/73/78
f 81/73/78 51/3/77 54/3/79 83/73/80
f 83/73/80 54/3/79 57/3/81 84/73/81
f 84/73/81 57/3/81 60/3/82 85/73/82
f 85/73/82 60/3/82 63/3/83 86/73/83
f 86/73/84 63/3/85 66/3/86 87/73/87
f 89/74/88 52/6/89 49/6/90 90/74/91
f 92/73/92 48/3/76 82/3/75 93/73/93
f 95/74/94 55/6/95 52/6/89 89/74/88
f 97/74/96 58/6/97 55/6/95 95/74/94
f 99/74/98 61/6/99 58/6/97 97/74/96
f 101/74/100 64/6/101 61/6/99 99/74/98
f 102/73/102 87/3/87 66/3/86 103/73/103
f 104/74/104 67/6/105 64/6/101 101/74/100
f 93/73/93 82/3/75 81/3/78 106/73/106
f 106/73/106 81/3/78 83/3/80 107/73/107
f 107/73/107 83/3/80 84/3/108 108/73/108
f 108/73/109 84/3/108 85/3/110 109/73/111
f 109/73/110 85/3/110 86/3/84 110/73/112
f 110/73/112 86/3/84 87/3/87 102/73/102
f 88/74/113 89/6/88 90/6/91 91/74/114
f 94/74/115 95/6/94 89/6/88 88/74/113
f 96/74/116 97/6/96 95/6/94 94/74/115
f 98/74/117 99/6/98 97/6/96 96/74/116
f 100/74/118 101/6/100 99/6/98 98/74/117
f 105/74/119 104/6/104 101/6/100 100/74/118
f 21/27/30 111/77/120 112/78/121 47/28/31
f 111/77/122 20/20/20 44/19/19 112/78/121
f 46/79/123 113/80/124 114/81/125 49/82/90
f 113/80/124 43/18/126 48/23/27 114/81/125
f 67/83/105 115/84/127 116/85/128 70/86/129
f 115/84/127 66/50/54 73/56/56 116/85/128
f 71/57/58 117/87/130 118/88/131 29/58/59
f 117/87/130 74/66/67 30/65/132 118/88/131
f 49/6/90 114/89/125 119/90/133 90/74/91
f 114/89/125 48/3/27 92/73/134 119/90/133
f 104/74/104 120/90/135 115/89/127 67/6/105
f 120/90/135 103/73/136 66/3/54 115/89/127
f 90/6/91 119/89/133 121/90/137 91/74/114
f 119/89/133 92/3/134 93/73/138 121/90/137
f 105/74/119 122/90/139 120/89/135 104/6/104
f 122/90/139 102/73/140 103/3/136 120/89/135
f 91/82/114 121/81/137 123/91/141 88/92/113
f 121/81/137 93/23/138 106/30/142 123/91/141
f 88/92/113 123/91/141 124/93/143 94/94/115
f 123/91/141 106/30/142 107/34/144 124/93/143
f 94/94/115 124/93/143 125/95/145 96/96/116
f 124/93/143 107/34/144 108/38/146 125/95/147
f 96/96/116 125/95/148 126/97/149 98/98/117
f 125/95/150 108/38/151 109/42/152 126/97/149
f 98/98/117 126/97/149 127/99/153 100/100/118
f 126/97/149 109/42/154 110/46/155 127/99/153
f 100/100/118 127/99/153 122/84/139 105/83/119
f 127/99/153 110/46/155 102/50/140 122/84/139
f 116/85/128 128/101/156 129/102/157 70/86/129
f 128/101/156 130/103/158 131/104/159 129/102/157
f 130/103/158 117/87/130 71/57/58 131/104/159
f 73/56/56 132/105/160 128/101/156 116/85/128
f 132/105/160 133/106/161 130/103/158 128/101/156
f 133/106/161 74/66/67 117/87/130 130/103/158
f 52/92/89 134/107/162 135/108/163 49/82/90
f 134/107/162 136/109/164 137/110/165 135/108/163
f 136/109/164 53/31/34 50/25/28 137/110/165
f 76/62/63 138/111/166 132/105/160 73/56/56
f 138/111/166 139/112/167 133/106/161 132/105/160
f 139/112/167 77/63/64 74/66/67 133/106/161
f 49/82/90 135/108/163 140/113/168 46/79/123
f 135/108/163 137/110/165 141/114/169 140/113/168
f 137/110/165 50/25/28 47/28/31 141/114/169
f 67/83/105 142/115/170 143/116/171 64/100/101
f 142/115/170 144/117/172 145/118/173 143/116/171
f 144/117/172 68/51/50 65/47/46 145/118/173
f 70/86/129 129/102/157 142/115/170 67/83/105
f 129/102/157 131/104/159 144/117/172 142/115/170
f 131/104/159 71/57/58 68/51/50 144/117/172
f 64/100/101 143/116/171 146/119/174 61/98/99
f 143/116/171 145/118/173 147/120/175 146/119/174
f 145/118/173 65/47/46 62/43/43 147/120/175
f 46/79/123 140/113/168 148/121/176 113/80/124
f 140/113/168 141/114/169 149/122/177 148/121/176
f 141/114/169 47/28/31 112/78/121 149/122/177
f 43/18/25 150/123/178 151/124/179 40/13/13
f 150/123/178 152/125/180 153/126/181 151/124/179
f 152/125/180 44/19/19 41/14/14 153/126/181
f 61/98/99 146/119/174 154/127/182 58/96/97
f 146/119/174 147/120/175 155/128/183 154/127/182
f 147/120/175 62/43/43 59/39/40 155/128/183
f 113/80/124 148/121/176 150/123/178 43/18/25
f 148/121/176 149/122/177 152/125/180 150/123/178
f 149/122/177 112/78/121 44/19/19 152/125/180
f 40/13/13 151/124/179 156/129/184 35/5/5
f 151/124/179 153/126/181 157/130/185 156/129/184
f 153/126/181 41/14/14 37/7/7 157/130/185
f 58/96/97 154/127/182 158/131/186 55/94/95
f 154/127/182 155/128/183 159/132/187 158/131/186
f 155/128/183 59/39/40 56/35/37 159/132/187
f 79/69/70 160/133/188 138/111/166 76/62/63
f 160/133/188 161/134/189 139/112/167 138/111/166
f 161/134/189 80/70/71 77/63/64 139/112/167
f 35/5/5 156/129/184 162/135/190 36/6/6
f 156/129/184 157/130/185 163/136/191 162/135/190
f 157/130/185 37/7/7 38/10/10 163/136/191
f 36/74/6 162/137/190 160/133/188 79/69/70
f 162/137/190 163/138/191 161/134/189 160/133/188
f 163/138/191 38/75/10 80/70/71 161/134/189
f 55/94/95 158/131/186 134/107/162 52/92/89
f 158/131/186 159/132/187 136/109/164 134/107/162
f 159/132/187 56/35/37 53/31/34 136/109/164
f 181/76/192 26/9/44 27/9/47 164/76/193
f 164/76/193 27/9/47 28/9/51 165/76/194
f 165/76/194 28/9/51 29/9/59 166/76/195
f 166/76/195 29/9/59 118/9/196 167/76/197
f 167/76/197 118/9/196 30/9/198 168/76/199
f 168/76/199 30/9/200 31/9/73 169/76/201
f 169/76/201 31/9/202 32/9/72 170/76/203
f 170/76/203 32/9/72 17/76/204 171/76/205
f 171/76/205 17/9/74 18/9/8 172/76/206
f 172/76/206 18/9/8 19/9/207 173/76/208
f 173/76/208 19/9/209 20/9/210 174/76/211
f 174/76/211 20/9/210 111/9/212 175/76/213
f 175/76/213 111/9/214 21/9/30 176/76/215
f 176/76/215 21/9/30 22/9/29 177/76/216
f 177/76/216 22/9/29 23/9/35 178/76/217
f 178/76/217 23/9/35 24/9/38 179/76/218
f 179/76/218 24/9/38 25/9/41 180/76/219
f 180/76/219 25/9/41 26/9/44 181/76/192
f 164/48/193 165/52/194 182/139/220
f 165/52/194 166/58/195 182/139/220
f 166/58/195 167/88/197 182/139/220
f 167/88/197 168/65/199 182/139/220
f 168/65/199 169/64/201 182/139/220
f 169/64/201 170/71/203 182/139/220
f 170/71/203 171/9/205 182/139/220
f 171/9/205 172/8/206 182/139/220
f 172/8/206 173/15/208 182/139/220
f 173/15/208 174/20/211 182/139/220
f 174/20/211 175/77/213 182/139/220
f 175/77/213 176/27/215 182/139/220
f 176/27/215 177/26/216 182/139/220
f 177/26/216 178/32/217 182/139/220
f 178/32/217 179/36/218 182/139/220
f 179/36/218 180/40/219 182/139/220
f 180/40/219 181/44/192 182/139/220
f 181/44/192 164/48/193 182/139/220
f 8/33/221 7/29/222 183/140/223
f 7/29/222 6/24/224 183/140/223
f 6/24/224 5/21/225 183/140/223
f 5/21/225 4/16/226 183/140/223
f 4/16/226 3/11/227 183/140/223
f 3/11/227 2/1/228 183/140/223
f 2/1/228 1/4/229 183/140/223
f 1/4/229 16/67/230 183/140/223
f 16/67/230 15/60/231 183/140/223
f 15/60/231 14/59/232 183/140/223
f 14/59/232 13/53/233 183/140/223
f 13/53/233 12/49/234 183/140/223
f 12/49/234 11/45/235 183/140/223
f 11/45/235 10/41/236 183/140/223
f 10/41/236 9/37/237 183/140/223
f 9/37/237 8/33/221 183/140/223
