# This file uses centimeters as units for non-parametric coordinates.

mtllib ghostWestern_environment_tumbleweed.mtl
g default
v 1.279582 0.675709 -1.195802
v -0.011503 0.675709 -1.756118
v -1.218808 0.675709 -1.279582
v -1.779124 0.675709 0.011503
v -1.302588 0.675709 1.218808
v -0.011503 0.675709 1.779124
v 1.195802 0.675709 1.302588
v 1.756118 0.675709 0.011503
v 2.009014 1.398872 -1.877902
v -0.011503 1.398872 -2.754784
v -1.900908 1.398872 -2.009014
v -2.777790 1.398872 0.011503
v -2.032020 1.398872 1.900908
v -0.011503 1.398872 2.777790
v 1.877902 1.398872 2.032020
v 2.754784 1.398872 0.011503
v 2.482680 2.518134 -2.320832
v -0.011503 2.518134 -3.403279
v -2.343838 2.518134 -2.482680
v -3.426285 2.518134 0.011503
v -2.505686 2.518134 2.343838
v -0.011503 2.518134 3.426285
v 2.320832 2.518134 2.505686
v 3.403279 2.518134 0.011503
v 2.570665 3.737319 -2.403108
v -0.011503 3.737319 -3.523740
v -2.426114 3.737319 -2.570665
v -3.546746 3.737319 0.011503
v -2.593671 3.737319 2.426114
v -0.011503 3.737319 3.546746
v 2.403108 3.737319 2.593671
v 3.523740 3.737319 0.011503
v 2.482680 4.956503 -2.320832
v -0.011503 4.956503 -3.403279
v -2.343838 4.956503 -2.482680
v -3.426285 4.956503 0.011503
v -2.505686 4.956503 2.343838
v -0.011503 4.956503 3.426285
v 2.320832 4.956503 2.505686
v 3.403279 4.956503 0.011503
v 2.009014 6.075767 -1.877902
v -0.011503 6.075767 -2.754784
v -1.900908 6.075767 -2.009014
v -2.777790 6.075767 0.011503
v -2.032020 6.075767 1.900908
v -0.011503 6.075767 2.777790
v 1.877902 6.075767 2.032020
v 2.754784 6.075767 0.011503
v 1.279582 6.798929 -1.195802
v -0.011503 6.798929 -1.756118
v -1.218808 6.798929 -1.279582
v -1.779124 6.798929 0.011503
v -1.302588 6.798929 1.218808
v -0.011503 6.798929 1.779124
v 1.195802 6.798929 1.302588
v 1.756118 6.798929 0.011503
v -0.011503 0.202076 0.011503
v -0.011503 7.272561 0.011503
vt 0.726911 0.089927
vt 0.754979 0.028137
vt 0.819778 0.094786
vt 0.752322 0.158809
vt 0.813764 0.187515
vt 0.886287 0.160498
vt 0.912748 0.097840
vt 0.885806 0.029404
vt 0.823654 0.001945
vt 0.498349 0.188507
vt 0.608006 0.189335
vt 0.608377 0.248670
vt 0.499110 0.247810
vt 0.719130 0.190907
vt 0.725334 0.250723
vt 0.831493 0.247539
vt 0.937706 0.211143
vt 0.107507 0.160866
vt 0.178189 0.186771
vt 0.157795 0.246648
vt 0.059865 0.212593
vt 0.277745 0.190574
vt 0.272887 0.250349
vt 0.383189 0.189369
vt 0.381107 0.248780
vt 0.610528 0.311422
vt 0.499586 0.310851
vt 0.734067 0.312941
vt 0.850866 0.310393
vt 0.982114 0.284485
vt 0.016501 0.285292
vt 0.137167 0.309952
vt 0.264987 0.312615
vt 0.377777 0.311554
vt 0.611631 0.370492
vt 0.499668 0.370495
vt 0.737525 0.370488
vt 0.858007 0.370484
vt 0.996826 0.370480
vt 0.001945 0.370503
vt 0.129780 0.370502
vt 0.261655 0.370500
vt 0.376426 0.370498
vt 0.610530 0.429561
vt 0.499588 0.430139
vt 0.734070 0.428034
vt 0.850868 0.430575
vt 0.982118 0.456476
vt 0.016504 0.455713
vt 0.137169 0.431050
vt 0.264989 0.428384
vt 0.377779 0.429442
vt 0.608383 0.492314
vt 0.499116 0.493180
vt 0.725340 0.490253
vt 0.831500 0.493429
vt 0.937713 0.529821
vt 0.059869 0.528411
vt 0.157799 0.494353
vt 0.272892 0.490650
vt 0.381112 0.492217
vt 0.608016 0.551649
vt 0.498358 0.552483
vt 0.719139 0.550068
vt 0.813772 0.553455
vt 0.886296 0.580470
vt 0.178195 0.554231
vt 0.107512 0.580137
vt 0.277751 0.550426
vt 0.383197 0.551627
vt 0.754993 0.712836
vt 0.726923 0.651046
vt 0.819789 0.646184
vt 0.752331 0.582164
vt 0.912760 0.643127
vt 0.885819 0.711563
vt 0.823669 0.739025
vn 0.278683 -0.919061 -0.278682
vn 0.380687 -0.919061 -0.102005
vn 0.095493 -0.990839 -0.095493
vn 0.102005 -0.919060 -0.380688
vn 0.102005 -0.919061 -0.380687
vn 0.034953 -0.990839 -0.130447
vn -0.278683 -0.919061 -0.278682
vn -0.102005 -0.919061 -0.380687
vn -0.095493 -0.990839 -0.095493
vn -0.380687 -0.919061 -0.102005
vn -0.380687 -0.919061 -0.102005
vn -0.130446 -0.990839 -0.034953
vn -0.278683 -0.919061 0.278682
vn -0.380687 -0.919061 0.102005
vn -0.095493 -0.990839 0.095493
vn -0.102005 -0.919060 0.380688
vn -0.102005 -0.919061 0.380687
vn -0.034953 -0.990839 0.130447
vn 0.278683 -0.919061 0.278682
vn 0.102005 -0.919061 0.380687
vn 0.095493 -0.990839 0.095493
vn 0.380687 -0.919061 0.102005
vn 0.380687 -0.919061 0.102005
vn 0.130446 -0.990839 0.034953
vn 0.600821 -0.783005 -0.160989
vn 0.439831 -0.783005 -0.439831
vn 0.568081 -0.595456 -0.568081
vn 0.776013 -0.595456 -0.207932
vn 0.160989 -0.783005 -0.600821
vn 0.160989 -0.783005 -0.600821
vn 0.207932 -0.595456 -0.776013
vn 0.207932 -0.595456 -0.776013
vn -0.160989 -0.783005 -0.600821
vn -0.439831 -0.783005 -0.439832
vn -0.568081 -0.595456 -0.568081
vn -0.207932 -0.595456 -0.776013
vn -0.600821 -0.783005 -0.160989
vn -0.600821 -0.783005 -0.160989
vn -0.776013 -0.595456 -0.207932
vn -0.776013 -0.595456 -0.207932
vn -0.600821 -0.783005 0.160989
vn -0.439831 -0.783005 0.439831
vn -0.568081 -0.595456 0.568081
vn -0.776013 -0.595456 0.207932
vn -0.160989 -0.783005 0.600821
vn -0.160989 -0.783005 0.600821
vn -0.207932 -0.595456 0.776013
vn -0.207932 -0.595456 0.776013
vn 0.160989 -0.783005 0.600821
vn 0.439831 -0.783005 0.439832
vn 0.568081 -0.595456 0.568081
vn 0.207932 -0.595456 0.776013
vn 0.600821 -0.783005 0.160989
vn 0.600821 -0.783005 0.160989
vn 0.776013 -0.595456 0.207932
vn 0.776013 -0.595456 0.207932
vn 0.896809 -0.371470 -0.240299
vn 0.656510 -0.371470 -0.656510
vn 0.656510 -0.371470 -0.656510
vn 0.896809 -0.371470 -0.240299
vn 0.240299 -0.371470 -0.896809
vn 0.240299 -0.371470 -0.896809
vn 0.240299 -0.371470 -0.896809
vn 0.240299 -0.371470 -0.896809
vn -0.240299 -0.371470 -0.896809
vn -0.240299 -0.371470 -0.896809
vn -0.656510 -0.371470 -0.656510
vn -0.656510 -0.371470 -0.656510
vn -0.896809 -0.371470 -0.240299
vn -0.896809 -0.371470 -0.240299
vn -0.896809 -0.371470 -0.240299
vn -0.896809 -0.371470 -0.240299
vn -0.896809 -0.371470 0.240299
vn -0.896809 -0.371470 0.240299
vn -0.656510 -0.371470 0.656510
vn -0.656510 -0.371470 0.656510
vn -0.240299 -0.371470 0.896809
vn -0.240299 -0.371470 0.896809
vn -0.240299 -0.371470 0.896809
vn -0.240299 -0.371470 0.896809
vn 0.240299 -0.371470 0.896809
vn 0.240299 -0.371470 0.896809
vn 0.656510 -0.371470 0.656510
vn 0.656510 -0.371470 0.656510
vn 0.896809 -0.371470 0.240299
vn 0.896809 -0.371470 0.240299
vn 0.896809 -0.371470 0.240299
vn 0.896809 -0.371470 0.240299
vn 0.958209 -0.126150 -0.256751
vn 0.701458 -0.126151 -0.701458
vn 0.701458 -0.126151 -0.701458
vn 0.958209 -0.126150 -0.256751
vn 0.256751 -0.126151 -0.958209
vn 0.256751 -0.126151 -0.958209
vn 0.256751 -0.126151 -0.958209
vn 0.256751 -0.126151 -0.958209
vn -0.256751 -0.126151 -0.958209
vn -0.256751 -0.126151 -0.958209
vn -0.701458 -0.126151 -0.701458
vn -0.701458 -0.126151 -0.701458
vn -0.958209 -0.126150 -0.256751
vn -0.958209 -0.126150 -0.256751
vn -0.958209 -0.126150 -0.256751
vn -0.958209 -0.126150 -0.256751
vn -0.958209 -0.126150 0.256751
vn -0.958209 -0.126150 0.256751
vn -0.701458 -0.126151 0.701458
vn -0.701458 -0.126151 0.701458
vn -0.256751 -0.126151 0.958209
vn -0.256751 -0.126151 0.958209
vn -0.256751 -0.126151 0.958209
vn -0.256751 -0.126151 0.958209
vn 0.256751 -0.126151 0.958209
vn 0.256751 -0.126151 0.958209
vn 0.701458 -0.126151 0.701458
vn 0.701458 -0.126151 0.701458
vn 0.958209 -0.126150 0.256751
vn 0.958209 -0.126150 0.256751
vn 0.958209 -0.126150 0.256751
vn 0.958209 -0.126150 0.256751
vn 0.958209 0.126150 -0.256751
vn 0.701458 0.126151 -0.701458
vn 0.701458 0.126151 -0.701458
vn 0.958209 0.126150 -0.256751
vn 0.256751 0.126151 -0.958209
vn 0.256751 0.126151 -0.958209
vn 0.256751 0.126151 -0.958209
vn 0.256751 0.126151 -0.958209
vn -0.256751 0.126151 -0.958209
vn -0.256751 0.126151 -0.958209
vn -0.701458 0.126151 -0.701458
vn -0.701458 0.126151 -0.701458
vn -0.958209 0.126150 -0.256751
vn -0.958209 0.126150 -0.256751
vn -0.958209 0.126150 -0.256751
vn -0.958209 0.126150 -0.256751
vn -0.958209 0.126150 0.256751
vn -0.958209 0.126150 0.256751
vn -0.701458 0.126151 0.701458
vn -0.701458 0.126151 0.701458
vn -0.256751 0.126151 0.958209
vn -0.256751 0.126151 0.958209
vn -0.256751 0.126151 0.958209
vn -0.256751 0.126151 0.958209
vn 0.256751 0.126151 0.958209
vn 0.256751 0.126151 0.958209
vn 0.701458 0.126151 0.701458
vn 0.701458 0.126151 0.701458
vn 0.958209 0.126150 0.256751
vn 0.958209 0.126150 0.256751
vn 0.958209 0.126150 0.256751
vn 0.958209 0.126150 0.256751
vn 0.896809 0.371470 -0.240299
vn 0.656510 0.371470 -0.656510
vn 0.656510 0.371470 -0.656510
vn 0.896809 0.371470 -0.240299
vn 0.240299 0.371470 -0.896809
vn 0.240299 0.371470 -0.896809
vn 0.240299 0.371470 -0.896809
vn 0.240299 0.371470 -0.896809
vn -0.240299 0.371470 -0.896809
vn -0.240299 0.371470 -0.896809
vn -0.656510 0.371470 -0.656510
vn -0.656510 0.371470 -0.656510
vn -0.896809 0.371470 -0.240299
vn -0.896809 0.371470 -0.240299
vn -0.896809 0.371470 -0.240299
vn -0.896809 0.371470 -0.240299
vn -0.896809 0.371470 0.240299
vn -0.896809 0.371470 0.240299
vn -0.656510 0.371470 0.656510
vn -0.656510 0.371470 0.656510
vn -0.240299 0.371470 0.896809
vn -0.240299 0.371470 0.896809
vn -0.240299 0.371470 0.896809
vn -0.240299 0.371470 0.896809
vn 0.240299 0.371470 0.896809
vn 0.240299 0.371470 0.896809
vn 0.656510 0.371470 0.656510
vn 0.656510 0.371470 0.656510
vn 0.896809 0.371470 0.240299
vn 0.896809 0.371470 0.240299
vn 0.896809 0.371470 0.240299
vn 0.896809 0.371470 0.240299
vn 0.776013 0.595456 -0.207932
vn 0.568081 0.595456 -0.568081
vn 0.439831 0.783005 -0.439831
vn 0.600821 0.783005 -0.160989
vn 0.207932 0.595456 -0.776013
vn 0.207932 0.595456 -0.776013
vn 0.160989 0.783005 -0.600821
vn 0.160989 0.783005 -0.600821
vn -0.207932 0.595456 -0.776013
vn -0.568081 0.595456 -0.568081
vn -0.439831 0.783005 -0.439831
vn -0.160989 0.783005 -0.600821
vn -0.776013 0.595456 -0.207932
vn -0.776013 0.595456 -0.207932
vn -0.600821 0.783005 -0.160989
vn -0.600821 0.783005 -0.160989
vn -0.776013 0.595456 0.207932
vn -0.568081 0.595456 0.568081
vn -0.439831 0.783005 0.439831
vn -0.600821 0.783005 0.160989
vn -0.207932 0.595456 0.776013
vn -0.207932 0.595456 0.776013
vn -0.160989 0.783005 0.600821
vn -0.160989 0.783005 0.600821
vn 0.207932 0.595456 0.776013
vn 0.568081 0.595456 0.568081
vn 0.439831 0.783005 0.439831
vn 0.160989 0.783005 0.600821
vn 0.776013 0.595456 0.207932
vn 0.776013 0.595456 0.207932
vn 0.600821 0.783005 0.160989
vn 0.600821 0.783005 0.160989
vn 0.380687 0.919061 -0.102005
vn 0.278683 0.919061 -0.278682
vn 0.130446 0.990839 -0.034953
vn 0.102005 0.919061 -0.380687
vn 0.102005 0.919060 -0.380688
vn 0.034953 0.990839 -0.130447
vn -0.102005 0.919060 -0.380688
vn -0.278683 0.919061 -0.278682
vn -0.034953 0.990839 -0.130447
vn -0.380687 0.919061 -0.102005
vn -0.380687 0.919061 -0.102005
vn -0.130446 0.990839 -0.034953
vn -0.380687 0.919061 0.102005
vn -0.278683 0.919061 0.278682
vn -0.130446 0.990839 0.034953
vn -0.102005 0.919061 0.380687
vn -0.102005 0.919060 0.380688
vn -0.034953 0.990839 0.130447
vn 0.102005 0.919060 0.380688
vn 0.278683 0.919061 0.278682
vn 0.034953 0.990839 0.130447
vn 0.380687 0.919061 0.102005
vn 0.380687 0.919061 0.102005
vn 0.130446 0.990839 0.034953
s off
g pSphere1
usemtl tumbleOBJ_environment_tumbleweed_initialShadingGroup
f 1/1/1 8/2/2 57/3/3
f 2/4/4 1/1/5 57/3/6
f 3/5/7 2/4/8 57/3/9
f 4/6/10 3/5/11 57/3/12
f 5/7/13 4/6/14 57/3/15
f 6/8/16 5/7/17 57/3/18
f 7/9/19 6/8/20 57/3/21
f 8/2/22 7/9/23 57/3/24
f 8/10/25 1/11/26 9/12/27 16/13/28
f 1/11/29 2/14/30 10/15/31 9/12/32
f 2/14/33 3/5/34 11/16/35 10/15/36
f 3/5/37 4/6/38 12/17/39 11/16/40
f 4/18/41 5/19/42 13/20/43 12/21/44
f 5/19/45 6/22/46 14/23/47 13/20/48
f 6/22/49 7/24/50 15/25/51 14/23/52
f 7/24/53 8/10/54 16/13/55 15/25/56
f 16/13/57 9/12/58 17/26/59 24/27/60
f 9/12/61 10/15/62 18/28/63 17/26/64
f 18/28/65 10/15/66 11/16/67 19/29/68
f 11/16/69 12/17/70 20/30/71 19/29/72
f 20/31/73 12/21/74 13/20/75 21/32/76
f 13/20/77 14/23/78 22/33/79 21/32/80
f 22/33/81 14/23/82 15/25/83 23/34/84
f 15/25/85 16/13/86 24/27/87 23/34/88
f 24/27/89 17/26/90 25/35/91 32/36/92
f 17/26/93 18/28/94 26/37/95 25/35/96
f 26/37/97 18/28/98 19/29/99 27/38/100
f 19/29/101 20/30/102 28/39/103 27/38/104
f 28/40/105 20/31/106 21/32/107 29/41/108
f 21/32/109 22/33/110 30/42/111 29/41/112
f 30/42/113 22/33/114 23/34/115 31/43/116
f 23/34/117 24/27/118 32/36/119 31/43/120
f 32/36/121 25/35/122 33/44/123 40/45/124
f 25/35/125 26/37/126 34/46/127 33/44/128
f 34/46/129 26/37/130 27/38/131 35/47/132
f 27/38/133 28/39/134 36/48/135 35/47/136
f 36/49/137 28/40/138 29/41/139 37/50/140
f 29/41/141 30/42/142 38/51/143 37/50/144
f 38/51/145 30/42/146 31/43/147 39/52/148
f 31/43/149 32/36/150 40/45/151 39/52/152
f 40/45/153 33/44/154 41/53/155 48/54/156
f 33/44/157 34/46/158 42/55/159 41/53/160
f 42/55/161 34/46/162 35/47/163 43/56/164
f 35/47/165 36/48/166 44/57/167 43/56/168
f 44/58/169 36/49/170 37/50/171 45/59/172
f 37/50/173 38/51/174 46/60/175 45/59/176
f 46/60/177 38/51/178 39/52/179 47/61/180
f 39/52/181 40/45/182 48/54/183 47/61/184
f 48/54/185 41/53/186 49/62/187 56/63/188
f 41/53/189 42/55/190 50/64/191 49/62/192
f 42/55/193 43/56/194 51/65/195 50/64/196
f 43/56/197 44/57/198 52/66/199 51/65/200
f 44/58/201 45/59/202 53/67/203 52/68/204
f 45/59/205 46/60/206 54/69/207 53/67/208
f 46/60/209 47/61/210 55/70/211 54/69/212
f 47/61/213 48/54/214 56/63/215 55/70/216
f 56/71/217 49/72/218 58/73/219
f 49/72/220 50/74/221 58/73/222
f 50/74/223 51/65/224 58/73/225
f 51/65/226 52/66/227 58/73/228
f 52/66/229 53/75/230 58/73/231
f 53/75/232 54/76/233 58/73/234
f 54/76/235 55/77/236 58/73/237
f 55/77/238 56/71/239 58/73/240
